<?xml version="1.0" encoding="utf-8"?>
<!-- Generator: Adobe Illustrator 25.2.2, SVG Export Plug-In . SVG Version: 6.00 Build 0)  -->
<svg version="1.1" id="Layer_1" xmlns="http://www.w3.org/2000/svg" xmlns:xlink="http://www.w3.org/1999/xlink" x="0px" y="0px"
	 viewBox="0 0 478 512" style="enable-background:new 0 0 478 512;" xml:space="preserve">
<style type="text/css">
	.st0{fill:#FE6A00;}
</style>
<g>
	<path class="st0" d="M179,118c-2.4,2.3-8-0.1-10-1c-8.8-3.8-17-12.9-28-32c-6.3-11-9.9-19-17-35c-1.4-3.2-3.8-8.6-6-16
		c-6.1-20.5-2.3-27-1-29c1-1.5,2-3,4-4c15.2-7.8,46.8,36.6,52,50c0.5,1.3,2.3,6,1,7c-1.1,0.8-4.1-1.3-5-2c-2.5-1.8-3.8-3.8-4-4
		c-0.3-0.5-5.2-6.6-15-19c-2-2.6-4.1-5.1-7-8c-3.5-3.5-8.4-8.3-11-7c-0.5,0.2-0.7,0.6-1,1c-1.8,2.6-0.5,6.6,0,8c8.7,25,12,31,12,31
		c15.7,25.4,28.2,43.2,30,45c2.7,2.8,3,3,3,3c1.3,1.3,1.5,1.4,2,2c0.4,0.5,1.6,2,2,4C180.3,113.6,180.5,116.6,179,118z"/>
	<path class="st0" d="M478,324c0.1,4-1.2,7-2,9c-2.9,6.8-7.9,11-11,13c-39.7,30.7-79.3,61.3-119,92c-2.3,1.5-6.4,3.6-11,3
		c-3.3-0.4-5.6-2-7-3c-22-16.4-106-128.4-109-132c-0.4-0.5-2.1-2.4-2-5c0.1-1.2,0.5-2.2,1-3c28.1-53.5,47.9-93,51-101
		c2.8-7.1,1.4-11.9,1-13c-0.3-1-1.1-3.2-3-5c-4.4-4.1-11.9-2.6-15-2c-11.1,2.2-40.6,27.6-76,65c-0.6,0.7-1.6,1.8-3,2
		c-2.6,0.4-4.9-1.9-6-3c-11.9-12.2-25.1-33.6-32-41c-0.8-0.8-3.1-3.2-4-7c-0.8-3.3-0.2-6,0-7c0.6-3,10.7-52.4,13-65c0.4-2,1-5.3,3-6
		c5-1.7,10.1,15.1,23,18c7,1.5,15.3-1.1,20-7c5-6.2,5.4-15.7,2-22c-0.8-1.4-2.1-3.4-19-19c-1.1-1-3.6-3.3-3-5c0.6-1.7,3.9-1.9,5-2
		c9.7-0.7,56.2-4.7,60-5c0,0,34-3,47-1c1.6,0.2,3.8,0.8,6,2c4.3,2.4,6.5,6.1,7,7c6.7,11.1,94.5,122.8,123,157
		c6.4,7.7,23.4,27.8,44,57c4.9,6.9,8.7,12.6,11,16C474.4,312.7,477.9,317.4,478,324z"/>
	<path class="st0" d="M273,389c-8.1-12.7-21.8-27.5-23-29c-0.1-0.1-0.4-0.5-1-1c0,0-0.8-0.7-2-1c-1.4-0.4-16.9-0.4-38,0
		c-3.2,0-29.8,0.3-32-1c-0.7-0.4-1-1-1-1c-0.6-1.1-0.2-2.4,0-3c3.4-10.3,17-34,17-34s2.3-4.7,7-14c12-24,12-24,12-24
		c5.5-11,30-59,39-74c1-1.7,4.6-7.6,7-16c0.5-1.8,0.8-3.2,1-4c-5.1,3-12.1,7.3-20,13c-14.4,10.3-45.4,32.5-67,69
		c-14.8,25-38.2,78.7-39,84c-0.1,0.4-0.3,2.7-2,4c-1.1,0.9-2.4,1-3,1c-7.4,0.4-37.3,0-41,0c-4.6,0-7,0-7,0c-1.6,0.2-3.6,0.7-6,0
		c-0.9-0.3-1.5-0.6-2-1c-1.4-1.1-1.9-2.6-2-3c-1.3-3.8-9.7-12.6-10-13c-5.5-5.8-15.7-9.2-24-9c-16.1,0.3-35.4,13.9-36,35
		c-0.6,22.1,19.8,36.8,36,37c9.7,0.1,20.6-4.9,24-9c2.5-3.1,5.6-5.8,8-9c0.1-0.1,0.4-0.6,1-1c1.5-1.1,3.2-1,4-1
		c8.9,0.4,36.2,4.7,39,5c1.2,0.1,2.1,0.4,4,1c0.3,0.1,1.2,0.4,2,1c0.3,0.2,0.7,0.6,1,1c0.7,1.1,0.1,2.6,0,3
		c-0.5,1.5-12.8,39.8-15,42c-0.3,0.3-0.7,0.7-1,1l-1,1c-1.8,1.8-6,2-6,2c-2.5,0.1-6,1.7-13,5c-7.5,3.5-14.7,14.5-16,25
		c-2.2,17.6,11.4,39.2,33,41c21.2,1.8,37-16.4,39-31c0.6-4.5,1.5-11.3-2-17c-5.2-8.5-7.8-12.8-8-13s-0.6-0.8-0.8-1.6
		c-0.3-1.5,0.5-2.9,0.8-3.4c0.8-1.2,21.6-35.9,23-46c0.1-0.7,0.3-3,2-4c1.4-0.9,3.1-0.4,5,0c3,0.6,6,0.5,9,1c8.4,1.5,33.1,1.6,59,3
		c0,0,18.1,1,42-4c1.4-0.3,4.3-1,5-3C274.5,391.5,273.5,389.8,273,389z M36,386c-9.9,0-18-8.1-18-18s8.1-18,18-18s18,8.1,18,18
		S45.9,386,36,386z M102,495c-10.5,0-19-8.5-19-19s8.5-19,19-19s19,8.5,19,19S112.5,495,102,495z M147,386c-6.1,0-11-4.9-11-11
		c0-6.1,4.9-11,11-11s11,4.9,11,11C158,381.1,153.1,386,147,386z"/>
</g>
</svg>
