<?xml version="1.0" encoding="utf-8"?>
<!-- Generator: Adobe Illustrator 25.2.2, SVG Export Plug-In . SVG Version: 6.00 Build 0)  -->
<svg version="1.1" id="Capa_1" xmlns="http://www.w3.org/2000/svg" xmlns:xlink="http://www.w3.org/1999/xlink" x="0px" y="0px"
	 viewBox="0 0 315.4 315.4" style="enable-background:new 0 0 315.4 315.4;" xml:space="preserve">
<style type="text/css">
	.st0{fill:#FE6A00;}
</style>
<g>
	<g>
		<path class="st0" d="M157.9,290.4c-68,0-123.4-55.3-123.4-123.4c0-64.4,49.6-117.4,112.6-122.9v19.7c0,1.4,0.8,2.7,2,3.3
			c0.6,0.3,1.2,0.4,1.8,0.4c0.7,0,1.5-0.2,2.1-0.6l44.7-30c1-0.7,1.7-1.9,1.7-3.1c0-1.3-0.6-2.4-1.7-3.1l-44.7-30
			c-1.2-0.8-2.7-0.9-3.9-0.2c-1.2,0.7-2,1.9-2,3.3V19C70.4,24.5,9.5,88.8,9.5,167c0,81.8,66.6,148.4,148.4,148.4
			c37.9,0,73.9-14.3,101.5-40.2L242.3,257C219.4,278.5,189.4,290.4,157.9,290.4z"/>
	</g>
	<g>
		<path class="st0" d="M284.6,89.7c-5.1-8.4-11.1-16.3-17.8-23.5l-18.3,17c5.6,6,10.5,12.6,14.8,19.5L284.6,89.7z"/>
	</g>
	<g>
		<path class="st0" d="M280.1,150.3l24.8-3.4c-1.3-9.7-3.6-19.4-6.8-28.6l-23.6,8.2C277.1,134.2,279,142.2,280.1,150.3z"/>
	</g>
	<g>
		<path class="st0" d="M243,45.5c-8-5.6-16.7-10.5-25.7-14.4l-10,22.9c7.5,3.3,14.6,7.3,21.3,12L243,45.5z"/>
	</g>
	<g>
		<path class="st0" d="M253.2,245.4l19.3,15.9c6.2-7.6,11.8-15.8,16.4-24.5L266.8,225C263,232.2,258.4,239,253.2,245.4z"/>
	</g>
	<g>
		<path class="st0" d="M280.9,176.6c-0.6,8.2-2.1,16.3-4.3,24.1l24.1,6.8c2.7-9.4,4.4-19.2,5.1-29L280.9,176.6z"/>
	</g>
	<g>
		<path class="st0" d="M93.8,182.7c3.5,2,11.7,5.3,19.8,5.3c10.4,0,15.6-5,15.6-11.3c0-8.5-8.4-12.3-17.2-12.3H104V150h7.9
			c6.7,0,15.1-2.6,15.1-9.9c0-5.1-4.1-8.9-12.6-8.9c-7,0-14.3,3-17.7,5.1l-4.1-14.5c5.1-3.3,15.2-6.4,26.4-6.4
			c18.1,0,28.2,9.6,28.2,21.3c0,9.1-5.1,16.3-15.6,19.8v0.3c10.2,1.8,18.5,9.6,18.5,20.9c0,15-13.3,26-34.9,26
			c-11,0-20.4-2.9-25.4-5.9L93.8,182.7z"/>
		<path class="st0" d="M226.3,159.2c0,26.3-10.6,44.5-32.3,44.5c-22.1,0-31.8-19.8-31.9-44c0-24.8,10.4-44.3,32.5-44.3
			C217.2,115.4,226.3,135.8,226.3,159.2z M182,159.7c0,19.6,4.7,28.9,12.3,28.9c7.8,0,12-9.7,12-29.2c0-18.9-4.1-28.9-12.1-28.9
			C187,130.5,182,139.7,182,159.7z"/>
	</g>
</g>
</svg>
